M48
; DRILL file {KiCad 9.0.0} date 2025-03-31T12:23:55-0500
; FORMAT={-:-/ absolute / metric / decimal}
; #@! TF.CreationDate,2025-03-31T12:23:55-05:00
; #@! TF.GenerationSoftware,Kicad,Pcbnew,9.0.0
; #@! TF.FileFunction,Plated,1,2,PTH
FMAT,2
METRIC
; #@! TA.AperFunction,Plated,PTH,ComponentDrill
T1C0.700
; #@! TA.AperFunction,Plated,PTH,ComponentDrill
T2C0.750
; #@! TA.AperFunction,Plated,PTH,ComponentDrill
T3C0.800
; #@! TA.AperFunction,Plated,PTH,ComponentDrill
T4C1.000
%
G90
G05
T1
X110.4Y-82.66
X110.4Y-87.74
T2
X110.4Y-66.6
X110.4Y-69.83
X110.4Y-73.1
X110.4Y-92.97
X110.4Y-96.2
X110.4Y-99.47
X119.6Y-75.9
X119.6Y-79.13
X119.6Y-82.4
X123.76Y-93.0
X123.76Y-96.23
X123.76Y-99.5
X127.36Y-66.58
X127.36Y-69.81
X127.36Y-73.08
X127.36Y-75.95
X127.36Y-79.18
X127.36Y-82.45
X136.6Y-92.97
X136.6Y-96.2
X136.6Y-99.47
X137.8Y-72.77
X137.8Y-76.0
X137.8Y-79.27
T3
X136.6Y-87.95
X136.6Y-90.45
T4
X114.8Y-89.2
X131.8Y-89.4
X140.0Y-68.2
X141.2Y-84.2
X141.2Y-95.4
M30
