%TF.GenerationSoftware,KiCad,Pcbnew,9.0.0*%
%TF.CreationDate,2025-03-31T12:23:45-05:00*%
%TF.ProjectId,Proyecto_prueba,50726f79-6563-4746-9f5f-707275656261,rev?*%
%TF.SameCoordinates,Original*%
%TF.FileFunction,Legend,Top*%
%TF.FilePolarity,Positive*%
%FSLAX46Y46*%
G04 Gerber Fmt 4.6, Leading zero omitted, Abs format (unit mm)*
G04 Created by KiCad (PCBNEW 9.0.0) date 2025-03-31 12:23:45*
%MOMM*%
%LPD*%
G01*
G04 APERTURE LIST*
%ADD10C,0.150000*%
%ADD11C,0.120000*%
G04 APERTURE END LIST*
D10*
X133590057Y-96295238D02*
X133542438Y-96390476D01*
X133542438Y-96390476D02*
X133447200Y-96485714D01*
X133447200Y-96485714D02*
X133304342Y-96628571D01*
X133304342Y-96628571D02*
X133256723Y-96723809D01*
X133256723Y-96723809D02*
X133256723Y-96819047D01*
X133494819Y-96771428D02*
X133447200Y-96866666D01*
X133447200Y-96866666D02*
X133351961Y-96961904D01*
X133351961Y-96961904D02*
X133161485Y-97009523D01*
X133161485Y-97009523D02*
X132828152Y-97009523D01*
X132828152Y-97009523D02*
X132637676Y-96961904D01*
X132637676Y-96961904D02*
X132542438Y-96866666D01*
X132542438Y-96866666D02*
X132494819Y-96771428D01*
X132494819Y-96771428D02*
X132494819Y-96580952D01*
X132494819Y-96580952D02*
X132542438Y-96485714D01*
X132542438Y-96485714D02*
X132637676Y-96390476D01*
X132637676Y-96390476D02*
X132828152Y-96342857D01*
X132828152Y-96342857D02*
X133161485Y-96342857D01*
X133161485Y-96342857D02*
X133351961Y-96390476D01*
X133351961Y-96390476D02*
X133447200Y-96485714D01*
X133447200Y-96485714D02*
X133494819Y-96580952D01*
X133494819Y-96580952D02*
X133494819Y-96771428D01*
X132828152Y-95485714D02*
X133494819Y-95485714D01*
X132447200Y-95723809D02*
X133161485Y-95961904D01*
X133161485Y-95961904D02*
X133161485Y-95342857D01*
X114466666Y-86324819D02*
X114466666Y-87039104D01*
X114466666Y-87039104D02*
X114419047Y-87181961D01*
X114419047Y-87181961D02*
X114323809Y-87277200D01*
X114323809Y-87277200D02*
X114180952Y-87324819D01*
X114180952Y-87324819D02*
X114085714Y-87324819D01*
X115371428Y-86658152D02*
X115371428Y-87324819D01*
X115133333Y-86277200D02*
X114895238Y-86991485D01*
X114895238Y-86991485D02*
X115514285Y-86991485D01*
X107390057Y-69925238D02*
X107342438Y-70020476D01*
X107342438Y-70020476D02*
X107247200Y-70115714D01*
X107247200Y-70115714D02*
X107104342Y-70258571D01*
X107104342Y-70258571D02*
X107056723Y-70353809D01*
X107056723Y-70353809D02*
X107056723Y-70449047D01*
X107294819Y-70401428D02*
X107247200Y-70496666D01*
X107247200Y-70496666D02*
X107151961Y-70591904D01*
X107151961Y-70591904D02*
X106961485Y-70639523D01*
X106961485Y-70639523D02*
X106628152Y-70639523D01*
X106628152Y-70639523D02*
X106437676Y-70591904D01*
X106437676Y-70591904D02*
X106342438Y-70496666D01*
X106342438Y-70496666D02*
X106294819Y-70401428D01*
X106294819Y-70401428D02*
X106294819Y-70210952D01*
X106294819Y-70210952D02*
X106342438Y-70115714D01*
X106342438Y-70115714D02*
X106437676Y-70020476D01*
X106437676Y-70020476D02*
X106628152Y-69972857D01*
X106628152Y-69972857D02*
X106961485Y-69972857D01*
X106961485Y-69972857D02*
X107151961Y-70020476D01*
X107151961Y-70020476D02*
X107247200Y-70115714D01*
X107247200Y-70115714D02*
X107294819Y-70210952D01*
X107294819Y-70210952D02*
X107294819Y-70401428D01*
X106390057Y-69591904D02*
X106342438Y-69544285D01*
X106342438Y-69544285D02*
X106294819Y-69449047D01*
X106294819Y-69449047D02*
X106294819Y-69210952D01*
X106294819Y-69210952D02*
X106342438Y-69115714D01*
X106342438Y-69115714D02*
X106390057Y-69068095D01*
X106390057Y-69068095D02*
X106485295Y-69020476D01*
X106485295Y-69020476D02*
X106580533Y-69020476D01*
X106580533Y-69020476D02*
X106723390Y-69068095D01*
X106723390Y-69068095D02*
X107294819Y-69639523D01*
X107294819Y-69639523D02*
X107294819Y-69020476D01*
X140866666Y-92524819D02*
X140866666Y-93239104D01*
X140866666Y-93239104D02*
X140819047Y-93381961D01*
X140819047Y-93381961D02*
X140723809Y-93477200D01*
X140723809Y-93477200D02*
X140580952Y-93524819D01*
X140580952Y-93524819D02*
X140485714Y-93524819D01*
X141295238Y-92620057D02*
X141342857Y-92572438D01*
X141342857Y-92572438D02*
X141438095Y-92524819D01*
X141438095Y-92524819D02*
X141676190Y-92524819D01*
X141676190Y-92524819D02*
X141771428Y-92572438D01*
X141771428Y-92572438D02*
X141819047Y-92620057D01*
X141819047Y-92620057D02*
X141866666Y-92715295D01*
X141866666Y-92715295D02*
X141866666Y-92810533D01*
X141866666Y-92810533D02*
X141819047Y-92953390D01*
X141819047Y-92953390D02*
X141247619Y-93524819D01*
X141247619Y-93524819D02*
X141866666Y-93524819D01*
X134790057Y-76095238D02*
X134742438Y-76190476D01*
X134742438Y-76190476D02*
X134647200Y-76285714D01*
X134647200Y-76285714D02*
X134504342Y-76428571D01*
X134504342Y-76428571D02*
X134456723Y-76523809D01*
X134456723Y-76523809D02*
X134456723Y-76619047D01*
X134694819Y-76571428D02*
X134647200Y-76666666D01*
X134647200Y-76666666D02*
X134551961Y-76761904D01*
X134551961Y-76761904D02*
X134361485Y-76809523D01*
X134361485Y-76809523D02*
X134028152Y-76809523D01*
X134028152Y-76809523D02*
X133837676Y-76761904D01*
X133837676Y-76761904D02*
X133742438Y-76666666D01*
X133742438Y-76666666D02*
X133694819Y-76571428D01*
X133694819Y-76571428D02*
X133694819Y-76380952D01*
X133694819Y-76380952D02*
X133742438Y-76285714D01*
X133742438Y-76285714D02*
X133837676Y-76190476D01*
X133837676Y-76190476D02*
X134028152Y-76142857D01*
X134028152Y-76142857D02*
X134361485Y-76142857D01*
X134361485Y-76142857D02*
X134551961Y-76190476D01*
X134551961Y-76190476D02*
X134647200Y-76285714D01*
X134647200Y-76285714D02*
X134694819Y-76380952D01*
X134694819Y-76380952D02*
X134694819Y-76571428D01*
X134123390Y-75571428D02*
X134075771Y-75666666D01*
X134075771Y-75666666D02*
X134028152Y-75714285D01*
X134028152Y-75714285D02*
X133932914Y-75761904D01*
X133932914Y-75761904D02*
X133885295Y-75761904D01*
X133885295Y-75761904D02*
X133790057Y-75714285D01*
X133790057Y-75714285D02*
X133742438Y-75666666D01*
X133742438Y-75666666D02*
X133694819Y-75571428D01*
X133694819Y-75571428D02*
X133694819Y-75380952D01*
X133694819Y-75380952D02*
X133742438Y-75285714D01*
X133742438Y-75285714D02*
X133790057Y-75238095D01*
X133790057Y-75238095D02*
X133885295Y-75190476D01*
X133885295Y-75190476D02*
X133932914Y-75190476D01*
X133932914Y-75190476D02*
X134028152Y-75238095D01*
X134028152Y-75238095D02*
X134075771Y-75285714D01*
X134075771Y-75285714D02*
X134123390Y-75380952D01*
X134123390Y-75380952D02*
X134123390Y-75571428D01*
X134123390Y-75571428D02*
X134171009Y-75666666D01*
X134171009Y-75666666D02*
X134218628Y-75714285D01*
X134218628Y-75714285D02*
X134313866Y-75761904D01*
X134313866Y-75761904D02*
X134504342Y-75761904D01*
X134504342Y-75761904D02*
X134599580Y-75714285D01*
X134599580Y-75714285D02*
X134647200Y-75666666D01*
X134647200Y-75666666D02*
X134694819Y-75571428D01*
X134694819Y-75571428D02*
X134694819Y-75380952D01*
X134694819Y-75380952D02*
X134647200Y-75285714D01*
X134647200Y-75285714D02*
X134599580Y-75238095D01*
X134599580Y-75238095D02*
X134504342Y-75190476D01*
X134504342Y-75190476D02*
X134313866Y-75190476D01*
X134313866Y-75190476D02*
X134218628Y-75238095D01*
X134218628Y-75238095D02*
X134171009Y-75285714D01*
X134171009Y-75285714D02*
X134123390Y-75380952D01*
X107774819Y-85826666D02*
X107298628Y-86159999D01*
X107774819Y-86398094D02*
X106774819Y-86398094D01*
X106774819Y-86398094D02*
X106774819Y-86017142D01*
X106774819Y-86017142D02*
X106822438Y-85921904D01*
X106822438Y-85921904D02*
X106870057Y-85874285D01*
X106870057Y-85874285D02*
X106965295Y-85826666D01*
X106965295Y-85826666D02*
X107108152Y-85826666D01*
X107108152Y-85826666D02*
X107203390Y-85874285D01*
X107203390Y-85874285D02*
X107251009Y-85921904D01*
X107251009Y-85921904D02*
X107298628Y-86017142D01*
X107298628Y-86017142D02*
X107298628Y-86398094D01*
X107774819Y-84874285D02*
X107774819Y-85445713D01*
X107774819Y-85159999D02*
X106774819Y-85159999D01*
X106774819Y-85159999D02*
X106917676Y-85255237D01*
X106917676Y-85255237D02*
X107012914Y-85350475D01*
X107012914Y-85350475D02*
X107060533Y-85445713D01*
X131466666Y-86524819D02*
X131466666Y-87239104D01*
X131466666Y-87239104D02*
X131419047Y-87381961D01*
X131419047Y-87381961D02*
X131323809Y-87477200D01*
X131323809Y-87477200D02*
X131180952Y-87524819D01*
X131180952Y-87524819D02*
X131085714Y-87524819D01*
X131847619Y-86524819D02*
X132466666Y-86524819D01*
X132466666Y-86524819D02*
X132133333Y-86905771D01*
X132133333Y-86905771D02*
X132276190Y-86905771D01*
X132276190Y-86905771D02*
X132371428Y-86953390D01*
X132371428Y-86953390D02*
X132419047Y-87001009D01*
X132419047Y-87001009D02*
X132466666Y-87096247D01*
X132466666Y-87096247D02*
X132466666Y-87334342D01*
X132466666Y-87334342D02*
X132419047Y-87429580D01*
X132419047Y-87429580D02*
X132371428Y-87477200D01*
X132371428Y-87477200D02*
X132276190Y-87524819D01*
X132276190Y-87524819D02*
X131990476Y-87524819D01*
X131990476Y-87524819D02*
X131895238Y-87477200D01*
X131895238Y-87477200D02*
X131847619Y-87429580D01*
X139009580Y-89366666D02*
X139057200Y-89414285D01*
X139057200Y-89414285D02*
X139104819Y-89557142D01*
X139104819Y-89557142D02*
X139104819Y-89652380D01*
X139104819Y-89652380D02*
X139057200Y-89795237D01*
X139057200Y-89795237D02*
X138961961Y-89890475D01*
X138961961Y-89890475D02*
X138866723Y-89938094D01*
X138866723Y-89938094D02*
X138676247Y-89985713D01*
X138676247Y-89985713D02*
X138533390Y-89985713D01*
X138533390Y-89985713D02*
X138342914Y-89938094D01*
X138342914Y-89938094D02*
X138247676Y-89890475D01*
X138247676Y-89890475D02*
X138152438Y-89795237D01*
X138152438Y-89795237D02*
X138104819Y-89652380D01*
X138104819Y-89652380D02*
X138104819Y-89557142D01*
X138104819Y-89557142D02*
X138152438Y-89414285D01*
X138152438Y-89414285D02*
X138200057Y-89366666D01*
X139104819Y-88414285D02*
X139104819Y-88985713D01*
X139104819Y-88699999D02*
X138104819Y-88699999D01*
X138104819Y-88699999D02*
X138247676Y-88795237D01*
X138247676Y-88795237D02*
X138342914Y-88890475D01*
X138342914Y-88890475D02*
X138390533Y-88985713D01*
X107390057Y-96295238D02*
X107342438Y-96390476D01*
X107342438Y-96390476D02*
X107247200Y-96485714D01*
X107247200Y-96485714D02*
X107104342Y-96628571D01*
X107104342Y-96628571D02*
X107056723Y-96723809D01*
X107056723Y-96723809D02*
X107056723Y-96819047D01*
X107294819Y-96771428D02*
X107247200Y-96866666D01*
X107247200Y-96866666D02*
X107151961Y-96961904D01*
X107151961Y-96961904D02*
X106961485Y-97009523D01*
X106961485Y-97009523D02*
X106628152Y-97009523D01*
X106628152Y-97009523D02*
X106437676Y-96961904D01*
X106437676Y-96961904D02*
X106342438Y-96866666D01*
X106342438Y-96866666D02*
X106294819Y-96771428D01*
X106294819Y-96771428D02*
X106294819Y-96580952D01*
X106294819Y-96580952D02*
X106342438Y-96485714D01*
X106342438Y-96485714D02*
X106437676Y-96390476D01*
X106437676Y-96390476D02*
X106628152Y-96342857D01*
X106628152Y-96342857D02*
X106961485Y-96342857D01*
X106961485Y-96342857D02*
X107151961Y-96390476D01*
X107151961Y-96390476D02*
X107247200Y-96485714D01*
X107247200Y-96485714D02*
X107294819Y-96580952D01*
X107294819Y-96580952D02*
X107294819Y-96771428D01*
X107294819Y-95390476D02*
X107294819Y-95961904D01*
X107294819Y-95676190D02*
X106294819Y-95676190D01*
X106294819Y-95676190D02*
X106437676Y-95771428D01*
X106437676Y-95771428D02*
X106532914Y-95866666D01*
X106532914Y-95866666D02*
X106580533Y-95961904D01*
X140866666Y-81324819D02*
X140866666Y-82039104D01*
X140866666Y-82039104D02*
X140819047Y-82181961D01*
X140819047Y-82181961D02*
X140723809Y-82277200D01*
X140723809Y-82277200D02*
X140580952Y-82324819D01*
X140580952Y-82324819D02*
X140485714Y-82324819D01*
X141819047Y-81324819D02*
X141342857Y-81324819D01*
X141342857Y-81324819D02*
X141295238Y-81801009D01*
X141295238Y-81801009D02*
X141342857Y-81753390D01*
X141342857Y-81753390D02*
X141438095Y-81705771D01*
X141438095Y-81705771D02*
X141676190Y-81705771D01*
X141676190Y-81705771D02*
X141771428Y-81753390D01*
X141771428Y-81753390D02*
X141819047Y-81801009D01*
X141819047Y-81801009D02*
X141866666Y-81896247D01*
X141866666Y-81896247D02*
X141866666Y-82134342D01*
X141866666Y-82134342D02*
X141819047Y-82229580D01*
X141819047Y-82229580D02*
X141771428Y-82277200D01*
X141771428Y-82277200D02*
X141676190Y-82324819D01*
X141676190Y-82324819D02*
X141438095Y-82324819D01*
X141438095Y-82324819D02*
X141342857Y-82277200D01*
X141342857Y-82277200D02*
X141295238Y-82229580D01*
X124350057Y-79275238D02*
X124302438Y-79370476D01*
X124302438Y-79370476D02*
X124207200Y-79465714D01*
X124207200Y-79465714D02*
X124064342Y-79608571D01*
X124064342Y-79608571D02*
X124016723Y-79703809D01*
X124016723Y-79703809D02*
X124016723Y-79799047D01*
X124254819Y-79751428D02*
X124207200Y-79846666D01*
X124207200Y-79846666D02*
X124111961Y-79941904D01*
X124111961Y-79941904D02*
X123921485Y-79989523D01*
X123921485Y-79989523D02*
X123588152Y-79989523D01*
X123588152Y-79989523D02*
X123397676Y-79941904D01*
X123397676Y-79941904D02*
X123302438Y-79846666D01*
X123302438Y-79846666D02*
X123254819Y-79751428D01*
X123254819Y-79751428D02*
X123254819Y-79560952D01*
X123254819Y-79560952D02*
X123302438Y-79465714D01*
X123302438Y-79465714D02*
X123397676Y-79370476D01*
X123397676Y-79370476D02*
X123588152Y-79322857D01*
X123588152Y-79322857D02*
X123921485Y-79322857D01*
X123921485Y-79322857D02*
X124111961Y-79370476D01*
X124111961Y-79370476D02*
X124207200Y-79465714D01*
X124207200Y-79465714D02*
X124254819Y-79560952D01*
X124254819Y-79560952D02*
X124254819Y-79751428D01*
X123254819Y-78465714D02*
X123254819Y-78656190D01*
X123254819Y-78656190D02*
X123302438Y-78751428D01*
X123302438Y-78751428D02*
X123350057Y-78799047D01*
X123350057Y-78799047D02*
X123492914Y-78894285D01*
X123492914Y-78894285D02*
X123683390Y-78941904D01*
X123683390Y-78941904D02*
X124064342Y-78941904D01*
X124064342Y-78941904D02*
X124159580Y-78894285D01*
X124159580Y-78894285D02*
X124207200Y-78846666D01*
X124207200Y-78846666D02*
X124254819Y-78751428D01*
X124254819Y-78751428D02*
X124254819Y-78560952D01*
X124254819Y-78560952D02*
X124207200Y-78465714D01*
X124207200Y-78465714D02*
X124159580Y-78418095D01*
X124159580Y-78418095D02*
X124064342Y-78370476D01*
X124064342Y-78370476D02*
X123826247Y-78370476D01*
X123826247Y-78370476D02*
X123731009Y-78418095D01*
X123731009Y-78418095D02*
X123683390Y-78465714D01*
X123683390Y-78465714D02*
X123635771Y-78560952D01*
X123635771Y-78560952D02*
X123635771Y-78751428D01*
X123635771Y-78751428D02*
X123683390Y-78846666D01*
X123683390Y-78846666D02*
X123731009Y-78894285D01*
X123731009Y-78894285D02*
X123826247Y-78941904D01*
X139666666Y-65324819D02*
X139666666Y-66039104D01*
X139666666Y-66039104D02*
X139619047Y-66181961D01*
X139619047Y-66181961D02*
X139523809Y-66277200D01*
X139523809Y-66277200D02*
X139380952Y-66324819D01*
X139380952Y-66324819D02*
X139285714Y-66324819D01*
X140666666Y-66324819D02*
X140095238Y-66324819D01*
X140380952Y-66324819D02*
X140380952Y-65324819D01*
X140380952Y-65324819D02*
X140285714Y-65467676D01*
X140285714Y-65467676D02*
X140190476Y-65562914D01*
X140190476Y-65562914D02*
X140095238Y-65610533D01*
X116590057Y-79225238D02*
X116542438Y-79320476D01*
X116542438Y-79320476D02*
X116447200Y-79415714D01*
X116447200Y-79415714D02*
X116304342Y-79558571D01*
X116304342Y-79558571D02*
X116256723Y-79653809D01*
X116256723Y-79653809D02*
X116256723Y-79749047D01*
X116494819Y-79701428D02*
X116447200Y-79796666D01*
X116447200Y-79796666D02*
X116351961Y-79891904D01*
X116351961Y-79891904D02*
X116161485Y-79939523D01*
X116161485Y-79939523D02*
X115828152Y-79939523D01*
X115828152Y-79939523D02*
X115637676Y-79891904D01*
X115637676Y-79891904D02*
X115542438Y-79796666D01*
X115542438Y-79796666D02*
X115494819Y-79701428D01*
X115494819Y-79701428D02*
X115494819Y-79510952D01*
X115494819Y-79510952D02*
X115542438Y-79415714D01*
X115542438Y-79415714D02*
X115637676Y-79320476D01*
X115637676Y-79320476D02*
X115828152Y-79272857D01*
X115828152Y-79272857D02*
X116161485Y-79272857D01*
X116161485Y-79272857D02*
X116351961Y-79320476D01*
X116351961Y-79320476D02*
X116447200Y-79415714D01*
X116447200Y-79415714D02*
X116494819Y-79510952D01*
X116494819Y-79510952D02*
X116494819Y-79701428D01*
X115494819Y-78368095D02*
X115494819Y-78844285D01*
X115494819Y-78844285D02*
X115971009Y-78891904D01*
X115971009Y-78891904D02*
X115923390Y-78844285D01*
X115923390Y-78844285D02*
X115875771Y-78749047D01*
X115875771Y-78749047D02*
X115875771Y-78510952D01*
X115875771Y-78510952D02*
X115923390Y-78415714D01*
X115923390Y-78415714D02*
X115971009Y-78368095D01*
X115971009Y-78368095D02*
X116066247Y-78320476D01*
X116066247Y-78320476D02*
X116304342Y-78320476D01*
X116304342Y-78320476D02*
X116399580Y-78368095D01*
X116399580Y-78368095D02*
X116447200Y-78415714D01*
X116447200Y-78415714D02*
X116494819Y-78510952D01*
X116494819Y-78510952D02*
X116494819Y-78749047D01*
X116494819Y-78749047D02*
X116447200Y-78844285D01*
X116447200Y-78844285D02*
X116399580Y-78891904D01*
X124350057Y-69905238D02*
X124302438Y-70000476D01*
X124302438Y-70000476D02*
X124207200Y-70095714D01*
X124207200Y-70095714D02*
X124064342Y-70238571D01*
X124064342Y-70238571D02*
X124016723Y-70333809D01*
X124016723Y-70333809D02*
X124016723Y-70429047D01*
X124254819Y-70381428D02*
X124207200Y-70476666D01*
X124207200Y-70476666D02*
X124111961Y-70571904D01*
X124111961Y-70571904D02*
X123921485Y-70619523D01*
X123921485Y-70619523D02*
X123588152Y-70619523D01*
X123588152Y-70619523D02*
X123397676Y-70571904D01*
X123397676Y-70571904D02*
X123302438Y-70476666D01*
X123302438Y-70476666D02*
X123254819Y-70381428D01*
X123254819Y-70381428D02*
X123254819Y-70190952D01*
X123254819Y-70190952D02*
X123302438Y-70095714D01*
X123302438Y-70095714D02*
X123397676Y-70000476D01*
X123397676Y-70000476D02*
X123588152Y-69952857D01*
X123588152Y-69952857D02*
X123921485Y-69952857D01*
X123921485Y-69952857D02*
X124111961Y-70000476D01*
X124111961Y-70000476D02*
X124207200Y-70095714D01*
X124207200Y-70095714D02*
X124254819Y-70190952D01*
X124254819Y-70190952D02*
X124254819Y-70381428D01*
X123254819Y-69619523D02*
X123254819Y-68952857D01*
X123254819Y-68952857D02*
X124254819Y-69381428D01*
X120750057Y-96325238D02*
X120702438Y-96420476D01*
X120702438Y-96420476D02*
X120607200Y-96515714D01*
X120607200Y-96515714D02*
X120464342Y-96658571D01*
X120464342Y-96658571D02*
X120416723Y-96753809D01*
X120416723Y-96753809D02*
X120416723Y-96849047D01*
X120654819Y-96801428D02*
X120607200Y-96896666D01*
X120607200Y-96896666D02*
X120511961Y-96991904D01*
X120511961Y-96991904D02*
X120321485Y-97039523D01*
X120321485Y-97039523D02*
X119988152Y-97039523D01*
X119988152Y-97039523D02*
X119797676Y-96991904D01*
X119797676Y-96991904D02*
X119702438Y-96896666D01*
X119702438Y-96896666D02*
X119654819Y-96801428D01*
X119654819Y-96801428D02*
X119654819Y-96610952D01*
X119654819Y-96610952D02*
X119702438Y-96515714D01*
X119702438Y-96515714D02*
X119797676Y-96420476D01*
X119797676Y-96420476D02*
X119988152Y-96372857D01*
X119988152Y-96372857D02*
X120321485Y-96372857D01*
X120321485Y-96372857D02*
X120511961Y-96420476D01*
X120511961Y-96420476D02*
X120607200Y-96515714D01*
X120607200Y-96515714D02*
X120654819Y-96610952D01*
X120654819Y-96610952D02*
X120654819Y-96801428D01*
X119654819Y-96039523D02*
X119654819Y-95420476D01*
X119654819Y-95420476D02*
X120035771Y-95753809D01*
X120035771Y-95753809D02*
X120035771Y-95610952D01*
X120035771Y-95610952D02*
X120083390Y-95515714D01*
X120083390Y-95515714D02*
X120131009Y-95468095D01*
X120131009Y-95468095D02*
X120226247Y-95420476D01*
X120226247Y-95420476D02*
X120464342Y-95420476D01*
X120464342Y-95420476D02*
X120559580Y-95468095D01*
X120559580Y-95468095D02*
X120607200Y-95515714D01*
X120607200Y-95515714D02*
X120654819Y-95610952D01*
X120654819Y-95610952D02*
X120654819Y-95896666D01*
X120654819Y-95896666D02*
X120607200Y-95991904D01*
X120607200Y-95991904D02*
X120559580Y-96039523D01*
D11*
%TO.C,Q4*%
X138450000Y-98000000D02*
X138450000Y-94400000D01*
X134000000Y-96200000D02*
G75*
G02*
X138438478Y-94361522I2600000J0D01*
G01*
X138438478Y-98038478D02*
G75*
G02*
X133999999Y-96200000I-1838478J1838478D01*
G01*
%TO.C,J4*%
X113470000Y-87870000D02*
X114800000Y-87870000D01*
X113470000Y-89200000D02*
X113470000Y-87870000D01*
X113470000Y-90470000D02*
X113470000Y-90530000D01*
X113470000Y-90470000D02*
X116130000Y-90470000D01*
X113470000Y-90530000D02*
X116130000Y-90530000D01*
X116130000Y-90470000D02*
X116130000Y-90530000D01*
%TO.C,Q2*%
X112250000Y-71630000D02*
X112250000Y-68030000D01*
X107800000Y-69830000D02*
G75*
G02*
X112238478Y-67991522I2600000J0D01*
G01*
X112238478Y-71668478D02*
G75*
G02*
X107799999Y-69830000I-1838478J1838478D01*
G01*
%TO.C,J2*%
X139870000Y-94070000D02*
X141200000Y-94070000D01*
X139870000Y-95400000D02*
X139870000Y-94070000D01*
X139870000Y-96670000D02*
X139870000Y-96730000D01*
X139870000Y-96670000D02*
X142530000Y-96670000D01*
X139870000Y-96730000D02*
X142530000Y-96730000D01*
X142530000Y-96670000D02*
X142530000Y-96730000D01*
%TO.C,Q8*%
X139650000Y-77800000D02*
X139650000Y-74200000D01*
X135200000Y-76000000D02*
G75*
G02*
X139638478Y-74161522I2600000J0D01*
G01*
X139638478Y-77838478D02*
G75*
G02*
X135199999Y-76000000I-1838478J1838478D01*
G01*
%TO.C,R1*%
X109480000Y-83280000D02*
X109480000Y-87120000D01*
X111320000Y-83280000D02*
X111320000Y-87120000D01*
%TO.C,J3*%
X130470000Y-88070000D02*
X131800000Y-88070000D01*
X130470000Y-89400000D02*
X130470000Y-88070000D01*
X130470000Y-90670000D02*
X130470000Y-90730000D01*
X130470000Y-90670000D02*
X133130000Y-90670000D01*
X130470000Y-90730000D02*
X133130000Y-90730000D01*
X133130000Y-90670000D02*
X133130000Y-90730000D01*
%TO.C,C1*%
X135680000Y-88571000D02*
X135680000Y-89829000D01*
X137520000Y-88571000D02*
X137520000Y-89829000D01*
%TO.C,Q1*%
X112250000Y-98000000D02*
X112250000Y-94400000D01*
X107800000Y-96200000D02*
G75*
G02*
X112238478Y-94361522I2600000J0D01*
G01*
X112238478Y-98038478D02*
G75*
G02*
X107799999Y-96200000I-1838478J1838478D01*
G01*
%TO.C,J5*%
X139870000Y-82870000D02*
X141200000Y-82870000D01*
X139870000Y-84200000D02*
X139870000Y-82870000D01*
X139870000Y-85470000D02*
X139870000Y-85530000D01*
X139870000Y-85470000D02*
X142530000Y-85470000D01*
X139870000Y-85530000D02*
X142530000Y-85530000D01*
X142530000Y-85470000D02*
X142530000Y-85530000D01*
%TO.C,Q6*%
X129210000Y-80980000D02*
X129210000Y-77380000D01*
X124760000Y-79180000D02*
G75*
G02*
X129198478Y-77341522I2600000J0D01*
G01*
X129198478Y-81018478D02*
G75*
G02*
X124759999Y-79180000I-1838478J1838478D01*
G01*
%TO.C,J1*%
X138670000Y-66870000D02*
X140000000Y-66870000D01*
X138670000Y-68200000D02*
X138670000Y-66870000D01*
X138670000Y-69470000D02*
X138670000Y-69530000D01*
X138670000Y-69470000D02*
X141330000Y-69470000D01*
X138670000Y-69530000D02*
X141330000Y-69530000D01*
X141330000Y-69470000D02*
X141330000Y-69530000D01*
%TO.C,Q5*%
X121450000Y-80930000D02*
X121450000Y-77330000D01*
X117000000Y-79130000D02*
G75*
G02*
X121438478Y-77291522I2600000J0D01*
G01*
X121438478Y-80968478D02*
G75*
G02*
X116999999Y-79130000I-1838478J1838478D01*
G01*
%TO.C,Q7*%
X129210000Y-71610000D02*
X129210000Y-68010000D01*
X124760000Y-69810000D02*
G75*
G02*
X129198478Y-67971522I2600000J0D01*
G01*
X129198478Y-71648478D02*
G75*
G02*
X124759999Y-69810000I-1838478J1838478D01*
G01*
%TO.C,Q3*%
X125610000Y-98030000D02*
X125610000Y-94430000D01*
X121160000Y-96230000D02*
G75*
G02*
X125598478Y-94391522I2600000J0D01*
G01*
X125598478Y-98068478D02*
G75*
G02*
X121159999Y-96230000I-1838478J1838478D01*
G01*
%TD*%
M02*
