G04 EAGLE Gerber RS-274X export*
G75*
%MOMM*%
%FSLAX34Y34*%
%LPD*%
%INSilkscreen Top*%
%IPPOS*%
%AMOC8*
5,1,8,0,0,1.08239X$1,22.5*%
G01*
%ADD10C,0.152400*%
%ADD11R,0.762000X1.397000*%
%ADD12C,0.127000*%


D10*
X250190Y139700D02*
X283210Y139700D01*
X283332Y139702D01*
X283454Y139708D01*
X283576Y139718D01*
X283697Y139731D01*
X283818Y139749D01*
X283938Y139770D01*
X284058Y139796D01*
X284176Y139825D01*
X284294Y139857D01*
X284411Y139894D01*
X284526Y139934D01*
X284640Y139978D01*
X284752Y140026D01*
X284863Y140077D01*
X284972Y140132D01*
X285080Y140190D01*
X285185Y140252D01*
X285288Y140317D01*
X285390Y140385D01*
X285489Y140457D01*
X285585Y140531D01*
X285680Y140609D01*
X285771Y140690D01*
X285861Y140773D01*
X285947Y140859D01*
X286030Y140949D01*
X286111Y141040D01*
X286189Y141135D01*
X286263Y141231D01*
X286335Y141330D01*
X286403Y141432D01*
X286468Y141535D01*
X286530Y141640D01*
X286588Y141748D01*
X286643Y141857D01*
X286694Y141968D01*
X286742Y142080D01*
X286786Y142194D01*
X286826Y142309D01*
X286863Y142426D01*
X286895Y142544D01*
X286924Y142662D01*
X286950Y142782D01*
X286971Y142902D01*
X286989Y143023D01*
X287002Y143144D01*
X287012Y143266D01*
X287018Y143388D01*
X287020Y143510D01*
X246380Y237490D02*
X246382Y237612D01*
X246388Y237734D01*
X246398Y237856D01*
X246411Y237977D01*
X246429Y238098D01*
X246450Y238218D01*
X246476Y238338D01*
X246505Y238456D01*
X246537Y238574D01*
X246574Y238691D01*
X246614Y238806D01*
X246658Y238920D01*
X246706Y239032D01*
X246757Y239143D01*
X246812Y239252D01*
X246870Y239360D01*
X246932Y239465D01*
X246997Y239568D01*
X247065Y239670D01*
X247137Y239769D01*
X247211Y239865D01*
X247289Y239960D01*
X247370Y240051D01*
X247453Y240141D01*
X247539Y240227D01*
X247629Y240310D01*
X247720Y240391D01*
X247815Y240469D01*
X247911Y240543D01*
X248010Y240615D01*
X248112Y240683D01*
X248215Y240748D01*
X248320Y240810D01*
X248428Y240868D01*
X248537Y240923D01*
X248648Y240974D01*
X248760Y241022D01*
X248874Y241066D01*
X248989Y241106D01*
X249106Y241143D01*
X249224Y241175D01*
X249342Y241204D01*
X249462Y241230D01*
X249582Y241251D01*
X249703Y241269D01*
X249824Y241282D01*
X249946Y241292D01*
X250068Y241298D01*
X250190Y241300D01*
X246380Y143510D02*
X246382Y143388D01*
X246388Y143266D01*
X246398Y143144D01*
X246411Y143023D01*
X246429Y142902D01*
X246450Y142782D01*
X246476Y142662D01*
X246505Y142544D01*
X246537Y142426D01*
X246574Y142309D01*
X246614Y142194D01*
X246658Y142080D01*
X246706Y141968D01*
X246757Y141857D01*
X246812Y141748D01*
X246870Y141640D01*
X246932Y141535D01*
X246997Y141432D01*
X247065Y141330D01*
X247137Y141231D01*
X247211Y141135D01*
X247289Y141040D01*
X247370Y140949D01*
X247453Y140859D01*
X247539Y140773D01*
X247629Y140690D01*
X247720Y140609D01*
X247815Y140531D01*
X247911Y140457D01*
X248010Y140385D01*
X248112Y140317D01*
X248215Y140252D01*
X248320Y140190D01*
X248428Y140132D01*
X248537Y140077D01*
X248648Y140026D01*
X248760Y139978D01*
X248874Y139934D01*
X248989Y139894D01*
X249106Y139857D01*
X249224Y139825D01*
X249342Y139796D01*
X249462Y139770D01*
X249582Y139749D01*
X249703Y139731D01*
X249824Y139718D01*
X249946Y139708D01*
X250068Y139702D01*
X250190Y139700D01*
X287020Y237490D02*
X287018Y237612D01*
X287012Y237734D01*
X287002Y237856D01*
X286989Y237977D01*
X286971Y238098D01*
X286950Y238218D01*
X286924Y238338D01*
X286895Y238456D01*
X286863Y238574D01*
X286826Y238691D01*
X286786Y238806D01*
X286742Y238920D01*
X286694Y239032D01*
X286643Y239143D01*
X286588Y239252D01*
X286530Y239360D01*
X286468Y239465D01*
X286403Y239568D01*
X286335Y239670D01*
X286263Y239769D01*
X286189Y239865D01*
X286111Y239960D01*
X286030Y240051D01*
X285947Y240141D01*
X285861Y240227D01*
X285771Y240310D01*
X285680Y240391D01*
X285585Y240469D01*
X285489Y240543D01*
X285390Y240615D01*
X285288Y240683D01*
X285185Y240748D01*
X285080Y240810D01*
X284972Y240868D01*
X284863Y240923D01*
X284752Y240974D01*
X284640Y241022D01*
X284526Y241066D01*
X284411Y241106D01*
X284294Y241143D01*
X284176Y241175D01*
X284058Y241204D01*
X283938Y241230D01*
X283818Y241251D01*
X283697Y241269D01*
X283576Y241282D01*
X283454Y241292D01*
X283332Y241298D01*
X283210Y241300D01*
X287020Y149860D02*
X287020Y143510D01*
X287020Y149860D02*
X285750Y151130D01*
X246380Y149860D02*
X246380Y143510D01*
X246380Y149860D02*
X247650Y151130D01*
X285750Y229870D02*
X287020Y231140D01*
X285750Y229870D02*
X285750Y151130D01*
X247650Y229870D02*
X246380Y231140D01*
X247650Y229870D02*
X247650Y151130D01*
X250190Y241300D02*
X283210Y241300D01*
X287020Y237490D02*
X287020Y231140D01*
X246380Y231140D02*
X246380Y237490D01*
D11*
X266700Y132715D03*
X266700Y248285D03*
D12*
X291465Y222968D02*
X302895Y222968D01*
X291465Y222968D02*
X291465Y226143D01*
X291467Y226254D01*
X291473Y226364D01*
X291482Y226475D01*
X291496Y226585D01*
X291513Y226694D01*
X291534Y226803D01*
X291559Y226911D01*
X291588Y227018D01*
X291620Y227124D01*
X291656Y227229D01*
X291696Y227332D01*
X291739Y227434D01*
X291786Y227535D01*
X291837Y227634D01*
X291890Y227731D01*
X291947Y227825D01*
X292008Y227918D01*
X292071Y228009D01*
X292138Y228098D01*
X292208Y228184D01*
X292281Y228267D01*
X292356Y228349D01*
X292434Y228427D01*
X292516Y228502D01*
X292599Y228575D01*
X292685Y228645D01*
X292774Y228712D01*
X292865Y228775D01*
X292958Y228836D01*
X293053Y228893D01*
X293149Y228946D01*
X293248Y228997D01*
X293349Y229044D01*
X293451Y229087D01*
X293554Y229127D01*
X293659Y229163D01*
X293765Y229195D01*
X293872Y229224D01*
X293980Y229249D01*
X294089Y229270D01*
X294198Y229287D01*
X294308Y229301D01*
X294419Y229310D01*
X294529Y229316D01*
X294640Y229318D01*
X294751Y229316D01*
X294861Y229310D01*
X294972Y229301D01*
X295082Y229287D01*
X295191Y229270D01*
X295300Y229249D01*
X295408Y229224D01*
X295515Y229195D01*
X295621Y229163D01*
X295726Y229127D01*
X295829Y229087D01*
X295931Y229044D01*
X296032Y228997D01*
X296131Y228946D01*
X296228Y228893D01*
X296322Y228836D01*
X296415Y228775D01*
X296506Y228712D01*
X296595Y228645D01*
X296681Y228575D01*
X296764Y228502D01*
X296846Y228427D01*
X296924Y228349D01*
X296999Y228267D01*
X297072Y228184D01*
X297142Y228098D01*
X297209Y228009D01*
X297272Y227918D01*
X297333Y227825D01*
X297390Y227731D01*
X297443Y227634D01*
X297494Y227535D01*
X297541Y227434D01*
X297584Y227332D01*
X297624Y227229D01*
X297660Y227124D01*
X297692Y227018D01*
X297721Y226911D01*
X297746Y226803D01*
X297767Y226694D01*
X297784Y226585D01*
X297798Y226475D01*
X297807Y226364D01*
X297813Y226254D01*
X297815Y226143D01*
X297815Y222968D01*
X297815Y226778D02*
X302895Y229318D01*
X294005Y234315D02*
X291465Y237490D01*
X302895Y237490D01*
X302895Y234315D02*
X302895Y240665D01*
D10*
X232610Y265470D02*
X232610Y115610D01*
X142690Y265470D02*
X140660Y265470D01*
X140660Y115610D01*
X208730Y115610D02*
X232610Y115610D01*
X208730Y115610D02*
X208730Y131610D01*
X208730Y149390D02*
X208730Y181650D01*
X208730Y199430D02*
X208730Y231690D01*
X208730Y249470D02*
X208730Y265470D01*
X208730Y115610D02*
X142690Y115610D01*
X208730Y265470D02*
X232610Y265470D01*
X142690Y265470D02*
X142690Y115610D01*
X142690Y265470D02*
X208730Y265470D01*
X142690Y115610D02*
X140660Y115610D01*
X150822Y140500D02*
X150824Y140642D01*
X150830Y140785D01*
X150840Y140927D01*
X150854Y141069D01*
X150872Y141210D01*
X150894Y141351D01*
X150920Y141491D01*
X150949Y141630D01*
X150983Y141769D01*
X151021Y141906D01*
X151062Y142043D01*
X151107Y142178D01*
X151156Y142312D01*
X151209Y142444D01*
X151265Y142575D01*
X151325Y142704D01*
X151389Y142832D01*
X151456Y142957D01*
X151527Y143081D01*
X151601Y143203D01*
X151678Y143322D01*
X151759Y143440D01*
X151843Y143555D01*
X151930Y143667D01*
X152021Y143777D01*
X152114Y143885D01*
X152211Y143990D01*
X152310Y144092D01*
X152412Y144191D01*
X152517Y144288D01*
X152625Y144381D01*
X152735Y144472D01*
X152847Y144559D01*
X152962Y144643D01*
X153080Y144724D01*
X153199Y144801D01*
X153321Y144875D01*
X153445Y144946D01*
X153570Y145013D01*
X153698Y145077D01*
X153827Y145137D01*
X153958Y145193D01*
X154090Y145246D01*
X154224Y145295D01*
X154359Y145340D01*
X154496Y145381D01*
X154633Y145419D01*
X154772Y145453D01*
X154911Y145482D01*
X155051Y145508D01*
X155192Y145530D01*
X155333Y145548D01*
X155475Y145562D01*
X155617Y145572D01*
X155760Y145578D01*
X155902Y145580D01*
X156044Y145578D01*
X156187Y145572D01*
X156329Y145562D01*
X156471Y145548D01*
X156612Y145530D01*
X156753Y145508D01*
X156893Y145482D01*
X157032Y145453D01*
X157171Y145419D01*
X157308Y145381D01*
X157445Y145340D01*
X157580Y145295D01*
X157714Y145246D01*
X157846Y145193D01*
X157977Y145137D01*
X158106Y145077D01*
X158234Y145013D01*
X158359Y144946D01*
X158483Y144875D01*
X158605Y144801D01*
X158724Y144724D01*
X158842Y144643D01*
X158957Y144559D01*
X159069Y144472D01*
X159179Y144381D01*
X159287Y144288D01*
X159392Y144191D01*
X159494Y144092D01*
X159593Y143990D01*
X159690Y143885D01*
X159783Y143777D01*
X159874Y143667D01*
X159961Y143555D01*
X160045Y143440D01*
X160126Y143322D01*
X160203Y143203D01*
X160277Y143081D01*
X160348Y142957D01*
X160415Y142832D01*
X160479Y142704D01*
X160539Y142575D01*
X160595Y142444D01*
X160648Y142312D01*
X160697Y142178D01*
X160742Y142043D01*
X160783Y141906D01*
X160821Y141769D01*
X160855Y141630D01*
X160884Y141491D01*
X160910Y141351D01*
X160932Y141210D01*
X160950Y141069D01*
X160964Y140927D01*
X160974Y140785D01*
X160980Y140642D01*
X160982Y140500D01*
X160980Y140358D01*
X160974Y140215D01*
X160964Y140073D01*
X160950Y139931D01*
X160932Y139790D01*
X160910Y139649D01*
X160884Y139509D01*
X160855Y139370D01*
X160821Y139231D01*
X160783Y139094D01*
X160742Y138957D01*
X160697Y138822D01*
X160648Y138688D01*
X160595Y138556D01*
X160539Y138425D01*
X160479Y138296D01*
X160415Y138168D01*
X160348Y138043D01*
X160277Y137919D01*
X160203Y137797D01*
X160126Y137678D01*
X160045Y137560D01*
X159961Y137445D01*
X159874Y137333D01*
X159783Y137223D01*
X159690Y137115D01*
X159593Y137010D01*
X159494Y136908D01*
X159392Y136809D01*
X159287Y136712D01*
X159179Y136619D01*
X159069Y136528D01*
X158957Y136441D01*
X158842Y136357D01*
X158724Y136276D01*
X158605Y136199D01*
X158483Y136125D01*
X158359Y136054D01*
X158234Y135987D01*
X158106Y135923D01*
X157977Y135863D01*
X157846Y135807D01*
X157714Y135754D01*
X157580Y135705D01*
X157445Y135660D01*
X157308Y135619D01*
X157171Y135581D01*
X157032Y135547D01*
X156893Y135518D01*
X156753Y135492D01*
X156612Y135470D01*
X156471Y135452D01*
X156329Y135438D01*
X156187Y135428D01*
X156044Y135422D01*
X155902Y135420D01*
X155760Y135422D01*
X155617Y135428D01*
X155475Y135438D01*
X155333Y135452D01*
X155192Y135470D01*
X155051Y135492D01*
X154911Y135518D01*
X154772Y135547D01*
X154633Y135581D01*
X154496Y135619D01*
X154359Y135660D01*
X154224Y135705D01*
X154090Y135754D01*
X153958Y135807D01*
X153827Y135863D01*
X153698Y135923D01*
X153570Y135987D01*
X153445Y136054D01*
X153321Y136125D01*
X153199Y136199D01*
X153080Y136276D01*
X152962Y136357D01*
X152847Y136441D01*
X152735Y136528D01*
X152625Y136619D01*
X152517Y136712D01*
X152412Y136809D01*
X152310Y136908D01*
X152211Y137010D01*
X152114Y137115D01*
X152021Y137223D01*
X151930Y137333D01*
X151843Y137445D01*
X151759Y137560D01*
X151678Y137678D01*
X151601Y137797D01*
X151527Y137919D01*
X151456Y138043D01*
X151389Y138168D01*
X151325Y138296D01*
X151265Y138425D01*
X151209Y138556D01*
X151156Y138688D01*
X151107Y138822D01*
X151062Y138957D01*
X151021Y139094D01*
X150983Y139231D01*
X150949Y139370D01*
X150920Y139509D01*
X150894Y139649D01*
X150872Y139790D01*
X150854Y139931D01*
X150840Y140073D01*
X150830Y140215D01*
X150824Y140358D01*
X150822Y140500D01*
X150822Y240576D02*
X150824Y240718D01*
X150830Y240861D01*
X150840Y241003D01*
X150854Y241145D01*
X150872Y241286D01*
X150894Y241427D01*
X150920Y241567D01*
X150949Y241706D01*
X150983Y241845D01*
X151021Y241982D01*
X151062Y242119D01*
X151107Y242254D01*
X151156Y242388D01*
X151209Y242520D01*
X151265Y242651D01*
X151325Y242780D01*
X151389Y242908D01*
X151456Y243033D01*
X151527Y243157D01*
X151601Y243279D01*
X151678Y243398D01*
X151759Y243516D01*
X151843Y243631D01*
X151930Y243743D01*
X152021Y243853D01*
X152114Y243961D01*
X152211Y244066D01*
X152310Y244168D01*
X152412Y244267D01*
X152517Y244364D01*
X152625Y244457D01*
X152735Y244548D01*
X152847Y244635D01*
X152962Y244719D01*
X153080Y244800D01*
X153199Y244877D01*
X153321Y244951D01*
X153445Y245022D01*
X153570Y245089D01*
X153698Y245153D01*
X153827Y245213D01*
X153958Y245269D01*
X154090Y245322D01*
X154224Y245371D01*
X154359Y245416D01*
X154496Y245457D01*
X154633Y245495D01*
X154772Y245529D01*
X154911Y245558D01*
X155051Y245584D01*
X155192Y245606D01*
X155333Y245624D01*
X155475Y245638D01*
X155617Y245648D01*
X155760Y245654D01*
X155902Y245656D01*
X156044Y245654D01*
X156187Y245648D01*
X156329Y245638D01*
X156471Y245624D01*
X156612Y245606D01*
X156753Y245584D01*
X156893Y245558D01*
X157032Y245529D01*
X157171Y245495D01*
X157308Y245457D01*
X157445Y245416D01*
X157580Y245371D01*
X157714Y245322D01*
X157846Y245269D01*
X157977Y245213D01*
X158106Y245153D01*
X158234Y245089D01*
X158359Y245022D01*
X158483Y244951D01*
X158605Y244877D01*
X158724Y244800D01*
X158842Y244719D01*
X158957Y244635D01*
X159069Y244548D01*
X159179Y244457D01*
X159287Y244364D01*
X159392Y244267D01*
X159494Y244168D01*
X159593Y244066D01*
X159690Y243961D01*
X159783Y243853D01*
X159874Y243743D01*
X159961Y243631D01*
X160045Y243516D01*
X160126Y243398D01*
X160203Y243279D01*
X160277Y243157D01*
X160348Y243033D01*
X160415Y242908D01*
X160479Y242780D01*
X160539Y242651D01*
X160595Y242520D01*
X160648Y242388D01*
X160697Y242254D01*
X160742Y242119D01*
X160783Y241982D01*
X160821Y241845D01*
X160855Y241706D01*
X160884Y241567D01*
X160910Y241427D01*
X160932Y241286D01*
X160950Y241145D01*
X160964Y241003D01*
X160974Y240861D01*
X160980Y240718D01*
X160982Y240576D01*
X160980Y240434D01*
X160974Y240291D01*
X160964Y240149D01*
X160950Y240007D01*
X160932Y239866D01*
X160910Y239725D01*
X160884Y239585D01*
X160855Y239446D01*
X160821Y239307D01*
X160783Y239170D01*
X160742Y239033D01*
X160697Y238898D01*
X160648Y238764D01*
X160595Y238632D01*
X160539Y238501D01*
X160479Y238372D01*
X160415Y238244D01*
X160348Y238119D01*
X160277Y237995D01*
X160203Y237873D01*
X160126Y237754D01*
X160045Y237636D01*
X159961Y237521D01*
X159874Y237409D01*
X159783Y237299D01*
X159690Y237191D01*
X159593Y237086D01*
X159494Y236984D01*
X159392Y236885D01*
X159287Y236788D01*
X159179Y236695D01*
X159069Y236604D01*
X158957Y236517D01*
X158842Y236433D01*
X158724Y236352D01*
X158605Y236275D01*
X158483Y236201D01*
X158359Y236130D01*
X158234Y236063D01*
X158106Y235999D01*
X157977Y235939D01*
X157846Y235883D01*
X157714Y235830D01*
X157580Y235781D01*
X157445Y235736D01*
X157308Y235695D01*
X157171Y235657D01*
X157032Y235623D01*
X156893Y235594D01*
X156753Y235568D01*
X156612Y235546D01*
X156471Y235528D01*
X156329Y235514D01*
X156187Y235504D01*
X156044Y235498D01*
X155902Y235496D01*
X155760Y235498D01*
X155617Y235504D01*
X155475Y235514D01*
X155333Y235528D01*
X155192Y235546D01*
X155051Y235568D01*
X154911Y235594D01*
X154772Y235623D01*
X154633Y235657D01*
X154496Y235695D01*
X154359Y235736D01*
X154224Y235781D01*
X154090Y235830D01*
X153958Y235883D01*
X153827Y235939D01*
X153698Y235999D01*
X153570Y236063D01*
X153445Y236130D01*
X153321Y236201D01*
X153199Y236275D01*
X153080Y236352D01*
X152962Y236433D01*
X152847Y236517D01*
X152735Y236604D01*
X152625Y236695D01*
X152517Y236788D01*
X152412Y236885D01*
X152310Y236984D01*
X152211Y237086D01*
X152114Y237191D01*
X152021Y237299D01*
X151930Y237409D01*
X151843Y237521D01*
X151759Y237636D01*
X151678Y237754D01*
X151601Y237873D01*
X151527Y237995D01*
X151456Y238119D01*
X151389Y238244D01*
X151325Y238372D01*
X151265Y238501D01*
X151209Y238632D01*
X151156Y238764D01*
X151107Y238898D01*
X151062Y239033D01*
X151021Y239170D01*
X150983Y239307D01*
X150949Y239446D01*
X150920Y239585D01*
X150894Y239725D01*
X150872Y239866D01*
X150854Y240007D01*
X150840Y240149D01*
X150830Y240291D01*
X150824Y240434D01*
X150822Y240576D01*
X150822Y190538D02*
X150824Y190680D01*
X150830Y190823D01*
X150840Y190965D01*
X150854Y191107D01*
X150872Y191248D01*
X150894Y191389D01*
X150920Y191529D01*
X150949Y191668D01*
X150983Y191807D01*
X151021Y191944D01*
X151062Y192081D01*
X151107Y192216D01*
X151156Y192350D01*
X151209Y192482D01*
X151265Y192613D01*
X151325Y192742D01*
X151389Y192870D01*
X151456Y192995D01*
X151527Y193119D01*
X151601Y193241D01*
X151678Y193360D01*
X151759Y193478D01*
X151843Y193593D01*
X151930Y193705D01*
X152021Y193815D01*
X152114Y193923D01*
X152211Y194028D01*
X152310Y194130D01*
X152412Y194229D01*
X152517Y194326D01*
X152625Y194419D01*
X152735Y194510D01*
X152847Y194597D01*
X152962Y194681D01*
X153080Y194762D01*
X153199Y194839D01*
X153321Y194913D01*
X153445Y194984D01*
X153570Y195051D01*
X153698Y195115D01*
X153827Y195175D01*
X153958Y195231D01*
X154090Y195284D01*
X154224Y195333D01*
X154359Y195378D01*
X154496Y195419D01*
X154633Y195457D01*
X154772Y195491D01*
X154911Y195520D01*
X155051Y195546D01*
X155192Y195568D01*
X155333Y195586D01*
X155475Y195600D01*
X155617Y195610D01*
X155760Y195616D01*
X155902Y195618D01*
X156044Y195616D01*
X156187Y195610D01*
X156329Y195600D01*
X156471Y195586D01*
X156612Y195568D01*
X156753Y195546D01*
X156893Y195520D01*
X157032Y195491D01*
X157171Y195457D01*
X157308Y195419D01*
X157445Y195378D01*
X157580Y195333D01*
X157714Y195284D01*
X157846Y195231D01*
X157977Y195175D01*
X158106Y195115D01*
X158234Y195051D01*
X158359Y194984D01*
X158483Y194913D01*
X158605Y194839D01*
X158724Y194762D01*
X158842Y194681D01*
X158957Y194597D01*
X159069Y194510D01*
X159179Y194419D01*
X159287Y194326D01*
X159392Y194229D01*
X159494Y194130D01*
X159593Y194028D01*
X159690Y193923D01*
X159783Y193815D01*
X159874Y193705D01*
X159961Y193593D01*
X160045Y193478D01*
X160126Y193360D01*
X160203Y193241D01*
X160277Y193119D01*
X160348Y192995D01*
X160415Y192870D01*
X160479Y192742D01*
X160539Y192613D01*
X160595Y192482D01*
X160648Y192350D01*
X160697Y192216D01*
X160742Y192081D01*
X160783Y191944D01*
X160821Y191807D01*
X160855Y191668D01*
X160884Y191529D01*
X160910Y191389D01*
X160932Y191248D01*
X160950Y191107D01*
X160964Y190965D01*
X160974Y190823D01*
X160980Y190680D01*
X160982Y190538D01*
X160980Y190396D01*
X160974Y190253D01*
X160964Y190111D01*
X160950Y189969D01*
X160932Y189828D01*
X160910Y189687D01*
X160884Y189547D01*
X160855Y189408D01*
X160821Y189269D01*
X160783Y189132D01*
X160742Y188995D01*
X160697Y188860D01*
X160648Y188726D01*
X160595Y188594D01*
X160539Y188463D01*
X160479Y188334D01*
X160415Y188206D01*
X160348Y188081D01*
X160277Y187957D01*
X160203Y187835D01*
X160126Y187716D01*
X160045Y187598D01*
X159961Y187483D01*
X159874Y187371D01*
X159783Y187261D01*
X159690Y187153D01*
X159593Y187048D01*
X159494Y186946D01*
X159392Y186847D01*
X159287Y186750D01*
X159179Y186657D01*
X159069Y186566D01*
X158957Y186479D01*
X158842Y186395D01*
X158724Y186314D01*
X158605Y186237D01*
X158483Y186163D01*
X158359Y186092D01*
X158234Y186025D01*
X158106Y185961D01*
X157977Y185901D01*
X157846Y185845D01*
X157714Y185792D01*
X157580Y185743D01*
X157445Y185698D01*
X157308Y185657D01*
X157171Y185619D01*
X157032Y185585D01*
X156893Y185556D01*
X156753Y185530D01*
X156612Y185508D01*
X156471Y185490D01*
X156329Y185476D01*
X156187Y185466D01*
X156044Y185460D01*
X155902Y185458D01*
X155760Y185460D01*
X155617Y185466D01*
X155475Y185476D01*
X155333Y185490D01*
X155192Y185508D01*
X155051Y185530D01*
X154911Y185556D01*
X154772Y185585D01*
X154633Y185619D01*
X154496Y185657D01*
X154359Y185698D01*
X154224Y185743D01*
X154090Y185792D01*
X153958Y185845D01*
X153827Y185901D01*
X153698Y185961D01*
X153570Y186025D01*
X153445Y186092D01*
X153321Y186163D01*
X153199Y186237D01*
X153080Y186314D01*
X152962Y186395D01*
X152847Y186479D01*
X152735Y186566D01*
X152625Y186657D01*
X152517Y186750D01*
X152412Y186847D01*
X152310Y186946D01*
X152211Y187048D01*
X152114Y187153D01*
X152021Y187261D01*
X151930Y187371D01*
X151843Y187483D01*
X151759Y187598D01*
X151678Y187716D01*
X151601Y187835D01*
X151527Y187957D01*
X151456Y188081D01*
X151389Y188206D01*
X151325Y188334D01*
X151265Y188463D01*
X151209Y188594D01*
X151156Y188726D01*
X151107Y188860D01*
X151062Y188995D01*
X151021Y189132D01*
X150983Y189269D01*
X150949Y189408D01*
X150920Y189547D01*
X150894Y189687D01*
X150872Y189828D01*
X150854Y189969D01*
X150840Y190111D01*
X150830Y190253D01*
X150824Y190396D01*
X150822Y190538D01*
D12*
X240357Y141897D02*
X251787Y134277D01*
X251787Y141897D02*
X240357Y134277D01*
X242897Y146342D02*
X240357Y149517D01*
X251787Y149517D01*
X251787Y146342D02*
X251787Y152692D01*
D10*
X304800Y158750D02*
X304800Y171450D01*
X311150Y177800D01*
X323850Y177800D01*
X330200Y171450D01*
X311150Y177800D02*
X304800Y184150D01*
X304800Y196850D01*
X311150Y203200D01*
X323850Y203200D01*
X330200Y196850D01*
X330200Y184150D01*
X323850Y177800D01*
X323850Y152400D02*
X311150Y152400D01*
X304800Y158750D01*
X323850Y152400D02*
X330200Y158750D01*
X330200Y171450D01*
X311150Y203200D02*
X304800Y209550D01*
X304800Y222250D01*
X311150Y228600D01*
X323850Y228600D01*
X330200Y222250D01*
X330200Y209550D01*
X323850Y203200D01*
D12*
X296037Y156083D02*
X287147Y156083D01*
X296037Y156083D02*
X296137Y156081D01*
X296236Y156075D01*
X296336Y156065D01*
X296434Y156052D01*
X296533Y156034D01*
X296630Y156013D01*
X296726Y155988D01*
X296822Y155959D01*
X296916Y155926D01*
X297009Y155890D01*
X297100Y155850D01*
X297190Y155806D01*
X297278Y155759D01*
X297364Y155709D01*
X297448Y155655D01*
X297530Y155598D01*
X297609Y155538D01*
X297687Y155474D01*
X297761Y155408D01*
X297833Y155339D01*
X297902Y155267D01*
X297968Y155193D01*
X298032Y155115D01*
X298092Y155036D01*
X298149Y154954D01*
X298203Y154870D01*
X298253Y154784D01*
X298300Y154696D01*
X298344Y154606D01*
X298384Y154515D01*
X298420Y154422D01*
X298453Y154328D01*
X298482Y154232D01*
X298507Y154136D01*
X298528Y154039D01*
X298546Y153940D01*
X298559Y153842D01*
X298569Y153742D01*
X298575Y153643D01*
X298577Y153543D01*
X298577Y152273D01*
X298577Y162063D02*
X287147Y162063D01*
X287147Y165238D01*
X287149Y165349D01*
X287155Y165459D01*
X287164Y165570D01*
X287178Y165680D01*
X287195Y165789D01*
X287216Y165898D01*
X287241Y166006D01*
X287270Y166113D01*
X287302Y166219D01*
X287338Y166324D01*
X287378Y166427D01*
X287421Y166529D01*
X287468Y166630D01*
X287519Y166729D01*
X287572Y166826D01*
X287629Y166920D01*
X287690Y167013D01*
X287753Y167104D01*
X287820Y167193D01*
X287890Y167279D01*
X287963Y167362D01*
X288038Y167444D01*
X288116Y167522D01*
X288198Y167597D01*
X288281Y167670D01*
X288367Y167740D01*
X288456Y167807D01*
X288547Y167870D01*
X288640Y167931D01*
X288735Y167988D01*
X288831Y168041D01*
X288930Y168092D01*
X289031Y168139D01*
X289133Y168182D01*
X289236Y168222D01*
X289341Y168258D01*
X289447Y168290D01*
X289554Y168319D01*
X289662Y168344D01*
X289771Y168365D01*
X289880Y168382D01*
X289990Y168396D01*
X290101Y168405D01*
X290211Y168411D01*
X290322Y168413D01*
X290433Y168411D01*
X290543Y168405D01*
X290654Y168396D01*
X290764Y168382D01*
X290873Y168365D01*
X290982Y168344D01*
X291090Y168319D01*
X291197Y168290D01*
X291303Y168258D01*
X291408Y168222D01*
X291511Y168182D01*
X291613Y168139D01*
X291714Y168092D01*
X291813Y168041D01*
X291910Y167988D01*
X292004Y167931D01*
X292097Y167870D01*
X292188Y167807D01*
X292277Y167740D01*
X292363Y167670D01*
X292446Y167597D01*
X292528Y167522D01*
X292606Y167444D01*
X292681Y167362D01*
X292754Y167279D01*
X292824Y167193D01*
X292891Y167104D01*
X292954Y167013D01*
X293015Y166920D01*
X293072Y166826D01*
X293125Y166729D01*
X293176Y166630D01*
X293223Y166529D01*
X293266Y166427D01*
X293306Y166324D01*
X293342Y166219D01*
X293374Y166113D01*
X293403Y166006D01*
X293428Y165898D01*
X293449Y165789D01*
X293466Y165680D01*
X293480Y165570D01*
X293489Y165459D01*
X293495Y165349D01*
X293497Y165238D01*
X293497Y162063D01*
X289687Y172922D02*
X287147Y176097D01*
X298577Y176097D01*
X298577Y172922D02*
X298577Y179272D01*
M02*
