%TF.GenerationSoftware,KiCad,Pcbnew,9.0.1*%
%TF.CreationDate,2025-05-02T23:13:34-05:00*%
%TF.ProjectId,Divisor pcb,44697669-736f-4722-9070-63622e6b6963,rev?*%
%TF.SameCoordinates,Original*%
%TF.FileFunction,Copper,L2,Bot*%
%TF.FilePolarity,Positive*%
%FSLAX46Y46*%
G04 Gerber Fmt 4.6, Leading zero omitted, Abs format (unit mm)*
G04 Created by KiCad (PCBNEW 9.0.1) date 2025-05-02 23:13:34*
%MOMM*%
%LPD*%
G01*
G04 APERTURE LIST*
%TA.AperFunction,ComponentPad*%
%ADD10R,3.000000X3.000000*%
%TD*%
%TA.AperFunction,ComponentPad*%
%ADD11C,3.000000*%
%TD*%
%TA.AperFunction,ComponentPad*%
%ADD12C,1.600000*%
%TD*%
%TA.AperFunction,ComponentPad*%
%ADD13O,1.600000X1.600000*%
%TD*%
%TA.AperFunction,Conductor*%
%ADD14C,1.500000*%
%TD*%
G04 APERTURE END LIST*
D10*
%TO.P,J1,1,Pin_1*%
%TO.N,5V*%
X134000000Y-86420000D03*
D11*
%TO.P,J1,2,Pin_2*%
%TO.N,Net-(J1-Pin_2)*%
X134000000Y-91500000D03*
%TO.P,J1,3,Pin_3*%
%TO.N,Earth*%
X134000000Y-96580000D03*
%TD*%
D12*
%TO.P,R2,1*%
%TO.N,Net-(J1-Pin_2)*%
X141650000Y-96000000D03*
D13*
%TO.P,R2,2*%
%TO.N,Earth*%
X154350000Y-96000000D03*
%TD*%
D12*
%TO.P,R1,1*%
%TO.N,Net-(J1-Pin_2)*%
X141650000Y-87500000D03*
D13*
%TO.P,R1,2*%
%TO.N,5V*%
X154350000Y-87500000D03*
%TD*%
D14*
%TO.N,Net-(J1-Pin_2)*%
X137150000Y-91500000D02*
X141650000Y-96000000D01*
X134000000Y-91500000D02*
X137150000Y-91500000D01*
X137650000Y-91500000D02*
X141650000Y-87500000D01*
X134000000Y-91500000D02*
X137650000Y-91500000D01*
%TO.N,5V*%
X149850000Y-83000000D02*
X154350000Y-87500000D01*
X136000000Y-83000000D02*
X149850000Y-83000000D01*
X134000000Y-85000000D02*
X136000000Y-83000000D01*
X134000000Y-86420000D02*
X134000000Y-85000000D01*
%TD*%
%TA.AperFunction,Conductor*%
%TO.N,Earth*%
G36*
X155943039Y-81019685D02*
G01*
X155988794Y-81072489D01*
X156000000Y-81124000D01*
X156000000Y-99376000D01*
X155980315Y-99443039D01*
X155927511Y-99488794D01*
X155876000Y-99500000D01*
X129124000Y-99500000D01*
X129056961Y-99480315D01*
X129011206Y-99427511D01*
X129000000Y-99376000D01*
X129000000Y-96448905D01*
X132000000Y-96448905D01*
X132000000Y-96711094D01*
X132034220Y-96971009D01*
X132034222Y-96971020D01*
X132102075Y-97224255D01*
X132202404Y-97466471D01*
X132202409Y-97466482D01*
X132333488Y-97693516D01*
X132333494Y-97693524D01*
X132420080Y-97806365D01*
X133314767Y-96911677D01*
X133326497Y-96939995D01*
X133409670Y-97064472D01*
X133515528Y-97170330D01*
X133640005Y-97253503D01*
X133668320Y-97265231D01*
X132773633Y-98159917D01*
X132773633Y-98159918D01*
X132886475Y-98246505D01*
X132886483Y-98246511D01*
X133113517Y-98377590D01*
X133113528Y-98377595D01*
X133355744Y-98477924D01*
X133608979Y-98545777D01*
X133608990Y-98545779D01*
X133868905Y-98579999D01*
X133868920Y-98580000D01*
X134131080Y-98580000D01*
X134131094Y-98579999D01*
X134391009Y-98545779D01*
X134391020Y-98545777D01*
X134644255Y-98477924D01*
X134886471Y-98377595D01*
X134886482Y-98377590D01*
X135113516Y-98246511D01*
X135113534Y-98246499D01*
X135226365Y-98159919D01*
X135226365Y-98159917D01*
X134331679Y-97265231D01*
X134359995Y-97253503D01*
X134484472Y-97170330D01*
X134590330Y-97064472D01*
X134673503Y-96939995D01*
X134685231Y-96911679D01*
X135579917Y-97806365D01*
X135579919Y-97806365D01*
X135666499Y-97693534D01*
X135666511Y-97693516D01*
X135797590Y-97466482D01*
X135797595Y-97466471D01*
X135897924Y-97224255D01*
X135965777Y-96971020D01*
X135965779Y-96971009D01*
X135999999Y-96711094D01*
X136000000Y-96711080D01*
X136000000Y-96448919D01*
X135999999Y-96448905D01*
X135965779Y-96188990D01*
X135965777Y-96188979D01*
X135897924Y-95935744D01*
X135797595Y-95693528D01*
X135797590Y-95693517D01*
X135666511Y-95466483D01*
X135666505Y-95466475D01*
X135579918Y-95353633D01*
X135579917Y-95353633D01*
X134685231Y-96248320D01*
X134673503Y-96220005D01*
X134590330Y-96095528D01*
X134484472Y-95989670D01*
X134359995Y-95906497D01*
X134331677Y-95894767D01*
X135226365Y-95000080D01*
X135113524Y-94913494D01*
X135113516Y-94913488D01*
X134886482Y-94782409D01*
X134886471Y-94782404D01*
X134644255Y-94682075D01*
X134391020Y-94614222D01*
X134391009Y-94614220D01*
X134131094Y-94580000D01*
X133868905Y-94580000D01*
X133608990Y-94614220D01*
X133608979Y-94614222D01*
X133355744Y-94682075D01*
X133113528Y-94782404D01*
X133113517Y-94782409D01*
X132886471Y-94913496D01*
X132773633Y-95000079D01*
X132773633Y-95000080D01*
X133668321Y-95894768D01*
X133640005Y-95906497D01*
X133515528Y-95989670D01*
X133409670Y-96095528D01*
X133326497Y-96220005D01*
X133314768Y-96248321D01*
X132420080Y-95353633D01*
X132420079Y-95353633D01*
X132333496Y-95466471D01*
X132202409Y-95693517D01*
X132202404Y-95693528D01*
X132102075Y-95935744D01*
X132034222Y-96188979D01*
X132034220Y-96188990D01*
X132000000Y-96448905D01*
X129000000Y-96448905D01*
X129000000Y-91368872D01*
X131999500Y-91368872D01*
X131999500Y-91631127D01*
X132015151Y-91750000D01*
X132033730Y-91891116D01*
X132101602Y-92144418D01*
X132101605Y-92144428D01*
X132201953Y-92386690D01*
X132201958Y-92386700D01*
X132333075Y-92613803D01*
X132492718Y-92821851D01*
X132492726Y-92821860D01*
X132678140Y-93007274D01*
X132678148Y-93007281D01*
X132886196Y-93166924D01*
X133113299Y-93298041D01*
X133113309Y-93298046D01*
X133355571Y-93398394D01*
X133355581Y-93398398D01*
X133608884Y-93466270D01*
X133868880Y-93500500D01*
X133868887Y-93500500D01*
X134131113Y-93500500D01*
X134131120Y-93500500D01*
X134391116Y-93466270D01*
X134644419Y-93398398D01*
X134886697Y-93298043D01*
X135113803Y-93166924D01*
X135321851Y-93007282D01*
X135321855Y-93007277D01*
X135321860Y-93007274D01*
X135507274Y-92821860D01*
X135507275Y-92821857D01*
X135507282Y-92821851D01*
X135524808Y-92799011D01*
X135581237Y-92757810D01*
X135623182Y-92750500D01*
X136580664Y-92750500D01*
X136647703Y-92770185D01*
X136668345Y-92786819D01*
X140497413Y-96615887D01*
X140520216Y-96647272D01*
X140537713Y-96681611D01*
X140658028Y-96847213D01*
X140802786Y-96991971D01*
X140957749Y-97104556D01*
X140968390Y-97112287D01*
X141082306Y-97170330D01*
X141150776Y-97205218D01*
X141150778Y-97205218D01*
X141150781Y-97205220D01*
X141209365Y-97224255D01*
X141345465Y-97268477D01*
X141446557Y-97284488D01*
X141547648Y-97300500D01*
X141547649Y-97300500D01*
X141752351Y-97300500D01*
X141752352Y-97300500D01*
X141954534Y-97268477D01*
X142149219Y-97205220D01*
X142331610Y-97112287D01*
X142424590Y-97044732D01*
X142497213Y-96991971D01*
X142497215Y-96991968D01*
X142497219Y-96991966D01*
X142641966Y-96847219D01*
X142641968Y-96847215D01*
X142641971Y-96847213D01*
X142694732Y-96774590D01*
X142762287Y-96681610D01*
X142855220Y-96499219D01*
X142918477Y-96304534D01*
X142950500Y-96102352D01*
X142950500Y-95897648D01*
X142927114Y-95750000D01*
X153073391Y-95750000D01*
X154034314Y-95750000D01*
X154029920Y-95754394D01*
X153977259Y-95845606D01*
X153950000Y-95947339D01*
X153950000Y-96052661D01*
X153977259Y-96154394D01*
X154029920Y-96245606D01*
X154034314Y-96250000D01*
X153073391Y-96250000D01*
X153082009Y-96304413D01*
X153145244Y-96499029D01*
X153238140Y-96681349D01*
X153358417Y-96846894D01*
X153358417Y-96846895D01*
X153503104Y-96991582D01*
X153668650Y-97111859D01*
X153850968Y-97204754D01*
X154045578Y-97267988D01*
X154100000Y-97276607D01*
X154100000Y-96315686D01*
X154104394Y-96320080D01*
X154195606Y-96372741D01*
X154297339Y-96400000D01*
X154402661Y-96400000D01*
X154504394Y-96372741D01*
X154595606Y-96320080D01*
X154600000Y-96315686D01*
X154600000Y-97276606D01*
X154654421Y-97267988D01*
X154849031Y-97204754D01*
X155031349Y-97111859D01*
X155196894Y-96991582D01*
X155196895Y-96991582D01*
X155341582Y-96846895D01*
X155341582Y-96846894D01*
X155461859Y-96681349D01*
X155554755Y-96499029D01*
X155617990Y-96304413D01*
X155626609Y-96250000D01*
X154665686Y-96250000D01*
X154670080Y-96245606D01*
X154722741Y-96154394D01*
X154750000Y-96052661D01*
X154750000Y-95947339D01*
X154722741Y-95845606D01*
X154670080Y-95754394D01*
X154665686Y-95750000D01*
X155626609Y-95750000D01*
X155617990Y-95695586D01*
X155554755Y-95500970D01*
X155461859Y-95318650D01*
X155341582Y-95153105D01*
X155341582Y-95153104D01*
X155196895Y-95008417D01*
X155031349Y-94888140D01*
X154849029Y-94795244D01*
X154654413Y-94732009D01*
X154600000Y-94723390D01*
X154600000Y-95684314D01*
X154595606Y-95679920D01*
X154504394Y-95627259D01*
X154402661Y-95600000D01*
X154297339Y-95600000D01*
X154195606Y-95627259D01*
X154104394Y-95679920D01*
X154100000Y-95684314D01*
X154100000Y-94723390D01*
X154045586Y-94732009D01*
X153850970Y-94795244D01*
X153668650Y-94888140D01*
X153503105Y-95008417D01*
X153503104Y-95008417D01*
X153358417Y-95153104D01*
X153358417Y-95153105D01*
X153238140Y-95318650D01*
X153145244Y-95500970D01*
X153082009Y-95695586D01*
X153073391Y-95750000D01*
X142927114Y-95750000D01*
X142918477Y-95695466D01*
X142855220Y-95500781D01*
X142855218Y-95500778D01*
X142855218Y-95500776D01*
X142762419Y-95318650D01*
X142762287Y-95318390D01*
X142754556Y-95307749D01*
X142641971Y-95152786D01*
X142497213Y-95008028D01*
X142331611Y-94887713D01*
X142297272Y-94870216D01*
X142265887Y-94847413D01*
X139256154Y-91837680D01*
X139222669Y-91776357D01*
X139227653Y-91706665D01*
X139256150Y-91662323D01*
X142265890Y-88652582D01*
X142297275Y-88629780D01*
X142331610Y-88612287D01*
X142497219Y-88491966D01*
X142641966Y-88347219D01*
X142641968Y-88347215D01*
X142641971Y-88347213D01*
X142694732Y-88274590D01*
X142762287Y-88181610D01*
X142855220Y-87999219D01*
X142918477Y-87804534D01*
X142950500Y-87602352D01*
X142950500Y-87397648D01*
X142918477Y-87195466D01*
X142855220Y-87000781D01*
X142855218Y-87000778D01*
X142855218Y-87000776D01*
X142788697Y-86870223D01*
X142762287Y-86818390D01*
X142754556Y-86807749D01*
X142641971Y-86652786D01*
X142497213Y-86508028D01*
X142331613Y-86387715D01*
X142331612Y-86387714D01*
X142331610Y-86387713D01*
X142252517Y-86347413D01*
X142149223Y-86294781D01*
X141954534Y-86231522D01*
X141779995Y-86203878D01*
X141752352Y-86199500D01*
X141547648Y-86199500D01*
X141523329Y-86203351D01*
X141345465Y-86231522D01*
X141150776Y-86294781D01*
X140968386Y-86387715D01*
X140802786Y-86508028D01*
X140658028Y-86652786D01*
X140537714Y-86818386D01*
X140520216Y-86852727D01*
X140497414Y-86884110D01*
X137168345Y-90213181D01*
X137107022Y-90246666D01*
X137080664Y-90249500D01*
X135623182Y-90249500D01*
X135556143Y-90229815D01*
X135524808Y-90200989D01*
X135523332Y-90199066D01*
X135507282Y-90178149D01*
X135507277Y-90178144D01*
X135507274Y-90178140D01*
X135321860Y-89992726D01*
X135321851Y-89992718D01*
X135113803Y-89833075D01*
X134886700Y-89701958D01*
X134886690Y-89701953D01*
X134644428Y-89601605D01*
X134644421Y-89601603D01*
X134644419Y-89601602D01*
X134391116Y-89533730D01*
X134333339Y-89526123D01*
X134131127Y-89499500D01*
X134131120Y-89499500D01*
X133868880Y-89499500D01*
X133868872Y-89499500D01*
X133637772Y-89529926D01*
X133608884Y-89533730D01*
X133355581Y-89601602D01*
X133355571Y-89601605D01*
X133113309Y-89701953D01*
X133113299Y-89701958D01*
X132886196Y-89833075D01*
X132678148Y-89992718D01*
X132492718Y-90178148D01*
X132333075Y-90386196D01*
X132201958Y-90613299D01*
X132201953Y-90613309D01*
X132101605Y-90855571D01*
X132101602Y-90855581D01*
X132033730Y-91108885D01*
X131999500Y-91368872D01*
X129000000Y-91368872D01*
X129000000Y-84872135D01*
X131999500Y-84872135D01*
X131999500Y-87967870D01*
X131999501Y-87967876D01*
X132005908Y-88027483D01*
X132056202Y-88162328D01*
X132056206Y-88162335D01*
X132142452Y-88277544D01*
X132142455Y-88277547D01*
X132257664Y-88363793D01*
X132257671Y-88363797D01*
X132392517Y-88414091D01*
X132392516Y-88414091D01*
X132399444Y-88414835D01*
X132452127Y-88420500D01*
X135547872Y-88420499D01*
X135607483Y-88414091D01*
X135742331Y-88363796D01*
X135857546Y-88277546D01*
X135943796Y-88162331D01*
X135994091Y-88027483D01*
X136000500Y-87967873D01*
X136000499Y-84872128D01*
X135996730Y-84837067D01*
X136009137Y-84768308D01*
X136032336Y-84736136D01*
X136481655Y-84286819D01*
X136542978Y-84253334D01*
X136569336Y-84250500D01*
X149280664Y-84250500D01*
X149347703Y-84270185D01*
X149368345Y-84286819D01*
X153197413Y-88115887D01*
X153220216Y-88147272D01*
X153237713Y-88181611D01*
X153358028Y-88347213D01*
X153502786Y-88491971D01*
X153657749Y-88604556D01*
X153668390Y-88612287D01*
X153784607Y-88671503D01*
X153850776Y-88705218D01*
X153850778Y-88705218D01*
X153850781Y-88705220D01*
X153955137Y-88739127D01*
X154045465Y-88768477D01*
X154146557Y-88784488D01*
X154247648Y-88800500D01*
X154247649Y-88800500D01*
X154452351Y-88800500D01*
X154452352Y-88800500D01*
X154654534Y-88768477D01*
X154849219Y-88705220D01*
X155031610Y-88612287D01*
X155124590Y-88544732D01*
X155197213Y-88491971D01*
X155197215Y-88491968D01*
X155197219Y-88491966D01*
X155341966Y-88347219D01*
X155341968Y-88347215D01*
X155341971Y-88347213D01*
X155394732Y-88274590D01*
X155462287Y-88181610D01*
X155555220Y-87999219D01*
X155618477Y-87804534D01*
X155650500Y-87602352D01*
X155650500Y-87397648D01*
X155618477Y-87195466D01*
X155555220Y-87000781D01*
X155555218Y-87000778D01*
X155555218Y-87000776D01*
X155488697Y-86870223D01*
X155462287Y-86818390D01*
X155454556Y-86807749D01*
X155341971Y-86652786D01*
X155197213Y-86508028D01*
X155031611Y-86387713D01*
X154997272Y-86370216D01*
X154965887Y-86347413D01*
X150664648Y-82046174D01*
X150664646Y-82046172D01*
X150505405Y-81930476D01*
X150330030Y-81841117D01*
X150142826Y-81780290D01*
X149948422Y-81749500D01*
X149948417Y-81749500D01*
X136098416Y-81749500D01*
X135901583Y-81749500D01*
X135901578Y-81749500D01*
X135707173Y-81780290D01*
X135519969Y-81841117D01*
X135344594Y-81930476D01*
X135253741Y-81996485D01*
X135185354Y-82046172D01*
X135185352Y-82046174D01*
X135185351Y-82046174D01*
X133046174Y-84185351D01*
X133046169Y-84185357D01*
X132930478Y-84344592D01*
X132930474Y-84344598D01*
X132926803Y-84351803D01*
X132878825Y-84402595D01*
X132816322Y-84419500D01*
X132452130Y-84419500D01*
X132452123Y-84419501D01*
X132392516Y-84425908D01*
X132257671Y-84476202D01*
X132257664Y-84476206D01*
X132142455Y-84562452D01*
X132142452Y-84562455D01*
X132056206Y-84677664D01*
X132056202Y-84677671D01*
X132005908Y-84812517D01*
X131999501Y-84872116D01*
X131999500Y-84872135D01*
X129000000Y-84872135D01*
X129000000Y-81124000D01*
X129019685Y-81056961D01*
X129072489Y-81011206D01*
X129124000Y-81000000D01*
X155876000Y-81000000D01*
X155943039Y-81019685D01*
G37*
%TD.AperFunction*%
%TD*%
M02*
